<svg width="61" height="61" viewBox="0 0 61 61" fill="none" xmlns="http://www.w3.org/2000/svg">
<path d="M11.9369 53.4401C14.0402 53.4401 15.7452 51.7351 15.7452 49.6318C15.7452 47.5286 14.0402 45.8235 11.9369 45.8235C9.83363 45.8235 8.1286 47.5286 8.1286 49.6318C8.1286 51.7351 9.83363 53.4401 11.9369 53.4401Z" fill="#94D5D2"/>
<path d="M0.844055 1.3573H59.2899V59.8031H0.844055V1.3573Z" fill="white"/>
<path d="M2.79107 2.51989H59.7137V11.0731H2.79107V2.51989Z" fill="#A91D3A" stroke="#A91D3A" stroke-width="1.52317"/>
<path d="M26.8854 46.4606H43.4061V52.8168H26.8854V46.4606Z" fill="#FF8898"/>
<path d="M59.7198 60.987H1.27397C1.10699 60.9879 0.941484 60.9558 0.786961 60.8925C0.632437 60.8292 0.491944 60.736 0.373557 60.6182C0.255171 60.5005 0.161225 60.3605 0.0971202 60.2063C0.0330154 60.0521 1.58302e-05 59.8868 1.82178e-05 59.7198V1.27397C-0.000880186 1.10642 0.0314582 0.940356 0.095162 0.785388C0.158866 0.630419 0.25267 0.489623 0.371147 0.371147C0.489623 0.25267 0.630419 0.158866 0.785388 0.095162C0.940356 0.0314582 1.10642 -0.000880186 1.27397 1.82178e-05H59.7198C59.8868 1.58302e-05 60.0521 0.0330154 60.2063 0.0971202C60.3605 0.161225 60.5005 0.255171 60.6182 0.373557C60.736 0.491944 60.8292 0.632437 60.8925 0.786961C60.9558 0.941484 60.9879 1.10699 60.987 1.27397V59.7198C60.987 60.0559 60.8535 60.3782 60.6158 60.6158C60.3782 60.8535 60.0559 60.987 59.7198 60.987ZM2.54114 58.4459H58.4459V2.54114H2.54114V58.4459Z" fill="#576065"/>
<path d="M58.7101 12.6175H2.2768C1.95586 12.5941 1.65568 12.45 1.43658 12.2143C1.21749 11.9786 1.0957 11.6687 1.0957 11.3469C1.0957 11.0251 1.21749 10.7153 1.43658 10.4796C1.65568 10.2439 1.95586 10.0998 2.2768 10.0764H58.7101C58.8847 10.0636 59.0601 10.087 59.2253 10.1451C59.3906 10.2031 59.542 10.2946 59.6703 10.4139C59.7986 10.5331 59.9009 10.6775 59.9708 10.838C60.0408 10.9986 60.0769 11.1718 60.0769 11.3469C60.0769 11.5221 60.0408 11.6953 59.9708 11.8559C59.9009 12.0164 59.7986 12.1608 59.6703 12.28C59.542 12.3992 59.3906 12.4908 59.2253 12.5488C59.0601 12.6069 58.8847 12.6303 58.7101 12.6175Z" fill="#576065"/>
<path d="M24.1169 4.88574H55.9996V7.42687H24.1169V4.88574Z" fill="#576065"/>
<path d="M8.55853 19.3736H44.7238V21.9147H8.55853V19.3736Z" fill="#576065"/>
<path d="M8.55853 25.3028H44.7238V27.8439H8.55853V25.3028Z" fill="#576065"/>
<path d="M8.55853 31.2321H44.7238V33.7732H8.55853V31.2321Z" fill="#576065"/>
<path d="M8.55853 37.1614H44.7238V39.7025H8.55853V37.1614Z" fill="#576065"/>
<path d="M50.7314 23.2719H53.2726V40.2127H50.7314V23.2719Z" fill="#CCCCCC"/>
<path d="M51.9986 27.5072C51.6625 27.5072 51.3402 27.3737 51.1026 27.136C50.8649 26.8984 50.7314 26.5761 50.7314 26.24V20.7308C50.7549 20.4099 50.8989 20.1097 51.1346 19.8906C51.3703 19.6715 51.6802 19.5497 52.002 19.5497C52.3238 19.5497 52.6337 19.6715 52.8694 19.8906C53.1051 20.1097 53.2491 20.4099 53.2726 20.7308V26.2332C53.2735 26.4008 53.2411 26.5668 53.1774 26.7218C53.1137 26.8768 53.0199 27.0176 52.9014 27.136C52.783 27.2545 52.6422 27.3483 52.4872 27.412C52.3322 27.4757 52.1662 27.5081 51.9986 27.5072Z" fill="#576065"/>
</svg>
