<svg width="52" height="67" viewBox="0 0 52 67" fill="none" xmlns="http://www.w3.org/2000/svg">
<path d="M2.03326 60.2892V63.4348C2.03321 63.971 2.24422 64.4858 2.62067 64.8677C2.99712 65.2496 3.50876 65.468 4.04498 65.4757H47.9369C48.4782 65.4757 48.9973 65.2607 49.3801 64.8779C49.7629 64.4952 49.9779 63.9761 49.9779 63.4348V4.31234C49.9779 3.77104 49.7629 3.25191 49.3801 2.86915C48.9973 2.48639 48.4782 2.27136 47.9369 2.27136H21.4847L2.03326 20.706V62.4033" fill="white"/>
<path d="M27.3075 24.5757L30.9725 32.0008L39.1584 33.1859L33.233 38.965L34.6302 47.1216L27.3075 43.2664L19.9849 47.1216L21.3821 38.965L15.4567 33.1859L23.6426 32.0008L27.3075 24.5757Z" fill="#A91D3A"/>
<path d="M47.9368 66.7925H4.04487C3.15434 66.7925 2.30029 66.4388 1.67059 65.8091C1.04089 65.1794 0.687134 64.3253 0.687134 63.4348V20.706C0.68942 20.5252 0.728923 20.3468 0.803178 20.1819C0.877434 20.0171 0.984852 19.8692 1.11874 19.7477L20.5848 1.3131C20.8283 1.08364 21.15 0.955482 21.4846 0.954651L47.9368 0.954651C48.8273 0.954651 49.6814 1.30841 50.3111 1.93811C50.9408 2.5678 51.2945 3.42186 51.2945 4.31238V63.4348C51.2945 64.3253 50.9408 65.1794 50.3111 65.8091C49.6814 66.4388 48.8273 66.7925 47.9368 66.7925ZM3.34991 60.2892V63.4348C3.34991 63.6288 3.42698 63.8149 3.56417 63.9521C3.70136 64.0893 3.88743 64.1663 4.08144 64.1663H47.9368C48.1308 64.1663 48.3169 64.0893 48.4541 63.9521C48.5913 63.8149 48.6683 63.6288 48.6683 63.4348V4.31238C48.6683 4.11837 48.5913 3.9323 48.4541 3.79511C48.3169 3.65792 48.1308 3.58085 47.9368 3.58085H22.0113L3.34991 21.2766V60.2892Z" fill="#576065"/>
<path d="M19.3632 22.9005H2.03319C1.68396 22.9005 1.34904 22.7618 1.1021 22.5149C0.85516 22.2679 0.716431 21.933 0.716431 21.5838C0.716431 21.2346 0.85516 20.8996 1.1021 20.6527C1.34904 20.4058 1.68396 20.267 2.03319 20.267H19.3632C19.5572 20.267 19.7433 20.19 19.8805 20.0528C20.0176 19.9156 20.0947 19.7295 20.0947 19.5355V3.28816C20.0947 2.93894 20.2334 2.60401 20.4804 2.35707C20.7273 2.11013 21.0622 1.97141 21.4115 1.97141C21.7607 1.97141 22.0956 2.11013 22.3426 2.35707C22.5895 2.60401 22.7282 2.93894 22.7282 3.28816V19.5135C22.7321 19.9576 22.6479 20.3979 22.4804 20.8092C22.3129 21.2204 22.0656 21.5944 21.7526 21.9094C21.4396 22.2244 21.0673 22.4742 20.6572 22.6443C20.247 22.8144 19.8072 22.9015 19.3632 22.9005Z" fill="#576065"/>
<path d="M34.6302 48.4384C34.4234 48.4344 34.2204 48.3818 34.0376 48.2848L27.3076 44.7588L20.5921 48.2848C20.3743 48.4009 20.1282 48.4536 19.8819 48.4366C19.6357 48.4197 19.3991 48.3339 19.1993 48.1889C18.9995 48.044 18.8444 47.8458 18.7518 47.617C18.6591 47.3882 18.6327 47.138 18.6755 46.8948L19.9557 39.4186L14.5277 34.1223C14.3518 33.9507 14.2274 33.7332 14.1686 33.4946C14.1099 33.256 14.1191 33.0056 14.1952 32.7719C14.2713 32.5383 14.4113 32.3305 14.5993 32.1723C14.7874 32.014 15.016 31.9116 15.2592 31.8765L22.7721 30.7938L26.1298 23.9906C26.2503 23.7841 26.4228 23.6129 26.63 23.4939C26.8373 23.3749 27.0722 23.3122 27.3112 23.3122C27.5502 23.3122 27.7851 23.3749 27.9924 23.4939C28.1997 23.6129 28.3721 23.7841 28.4926 23.9906L31.8431 30.7938L39.3486 31.8838C39.5918 31.9189 39.8204 32.0214 40.0084 32.1796C40.1965 32.3379 40.3365 32.5456 40.4126 32.7793C40.4887 33.0129 40.4979 33.2633 40.4392 33.5019C40.3804 33.7406 40.256 33.958 40.0801 34.1296L34.6521 39.4259L35.9323 46.8948C35.9642 47.0834 35.9546 47.2766 35.9043 47.461C35.8539 47.6455 35.764 47.8167 35.6408 47.9629C35.5176 48.1091 35.364 48.2267 35.1907 48.3076C35.0175 48.3884 34.8287 48.4305 34.6375 48.4311L34.6302 48.4384ZM27.3076 41.9204C27.5219 41.9206 27.7329 41.9733 27.922 42.074L32.8891 44.6856L31.9382 39.1626C31.9027 38.9524 31.9188 38.7367 31.985 38.5341C32.0513 38.3315 32.1657 38.148 32.3185 37.9994L36.3347 34.0857L30.7896 33.281C30.5766 33.2497 30.3746 33.1667 30.2011 33.0391C30.0277 32.9116 29.8882 32.7435 29.7948 32.5495L27.3076 27.5531L24.8277 32.5788C24.7343 32.7727 24.5947 32.9409 24.4213 33.0684C24.2478 33.1959 24.0458 33.279 23.8328 33.3103L18.2878 34.115L22.3331 38.0214C22.4859 38.17 22.6004 38.3535 22.6667 38.5561C22.7329 38.7587 22.749 38.9743 22.7135 39.1845L21.7625 44.7076L26.7223 42.1033C26.9002 41.9969 27.1008 41.9342 27.3076 41.9204Z" fill="#576065"/>
</svg>
